<?xml version="1.0" encoding="UTF-8"?>
<svg width="50px" height="50px" viewBox="0 0 50 50" version="1.1" xmlns="http://www.w3.org/2000/svg" xmlns:xlink="http://www.w3.org/1999/xlink">
    <!-- Generator: Sketch 49.3 (51167) - http://www.bohemiancoding.com/sketch -->
    <title>ico/home</title>
    <desc>Created with Sketch.</desc>
    <defs></defs>
    <g id="ico/home" stroke="none" stroke-width="1" fill="none" fill-rule="evenodd">
        <path d="M34.5,46.5049995 L43.5030249,46.5049995 L43.5030249,19.6936947 L25.0015124,3.96859827 L6.5,19.6936947 L6.5,46.5049995 L15.5,46.5049995 L15.5,32 C15.5,31.1715729 16.1715729,30.5 17,30.5 L33,30.5 C33.8284271,30.5 34.5,31.1715729 34.5,32 L34.5,46.5049995 Z M24.0300825,0.857054773 C24.5902107,0.380981742 25.4128142,0.380981742 25.9729424,0.857054773 L45.9744549,17.8570548 C46.3097741,18.1420545 46.5030249,18.5599275 46.5030249,19 L46.5030249,48.0049995 C46.5030249,48.8334266 45.831452,49.5049995 45.0030249,49.5049995 L5,49.5049995 C4.17157288,49.5049995 3.5,48.8334266 3.5,48.0049995 L3.5,19 C3.5,18.5599275 3.69325082,18.1420545 4.02857002,17.8570548 L24.0300825,0.857054773 Z M18.5,33.5 L18.5,46.5 L31.5,46.5 L31.5,33.5 L18.5,33.5 Z" id="Combined-Shape" fill="#979797" fill-rule="nonzero"></path>
    </g>
</svg>