<?xml version="1.0" encoding="UTF-8"?>
<svg width="50px" height="50px" viewBox="0 0 50 50" version="1.1" xmlns="http://www.w3.org/2000/svg" xmlns:xlink="http://www.w3.org/1999/xlink">
    <!-- Generator: Sketch 49.3 (51167) - http://www.bohemiancoding.com/sketch -->
    <title>ico/like</title>
    <desc>Created with Sketch.</desc>
    <defs></defs>
    <g id="ico/like" stroke="none" stroke-width="1" fill="none" fill-rule="evenodd">
        <path d="M23.7936404,11.2256833 C23.5647658,10.9465835 23.3211391,10.6776592 23.0631423,10.4196625 C18.8098234,6.16634356 11.9138309,6.16634356 7.66051197,10.4196625 C3.59801531,14.4821591 3.39690559,20.9958071 7.16422099,25.2924415 C7.20594514,25.340028 7.24411325,25.3894984 7.27874934,25.4405302 L25.2920658,43.4538467 L43.104856,25.6410565 C43.1531123,25.5282063 43.2160707,25.4195516 43.2940424,25.3177908 C46.5939504,21.0110852 46.2127631,14.8770693 42.339488,11.0037942 C38.0861691,6.75047525 31.1901766,6.75047525 26.9368577,11.0037942 C26.773565,11.1670869 26.6160192,11.3347668 26.4643166,11.5066478 C25.9299376,12.1121059 25.012139,12.1858363 24.3879591,11.6734498 C24.1496496,11.5630177 23.9525171,11.4194247 23.7936404,11.2256833 Z M44.4608084,8.88247382 C49.2613787,13.6830441 49.8564057,21.2038423 46.0223498,26.6693083 C45.9584318,26.9214371 45.8277936,27.1607595 45.6290717,27.3594814 L26.352726,46.6358272 C25.7669396,47.2216136 24.8171921,47.2216136 24.2314057,46.6358272 L4.95505994,27.3594814 C4.85741806,27.2618396 4.77618917,27.1543475 4.71123565,27.0403143 C0.108881767,21.557061 0.429215191,13.4083186 5.53919163,8.29834213 C10.9640834,2.87345034 19.7595708,2.87345034 25.1844626,8.29834213 C25.2241313,8.3380108 25.263538,8.37788891 25.3026817,8.41797464 C30.7547936,3.46227298 39.1954406,3.61710604 44.4608084,8.88247382 Z" id="Combined-Shape" fill="#979797" fill-rule="nonzero"></path>
    </g>
</svg>