<?xml version="1.0" encoding="UTF-8"?>
<svg width="50px" height="50px" viewBox="0 0 50 50" version="1.1" xmlns="http://www.w3.org/2000/svg" xmlns:xlink="http://www.w3.org/1999/xlink">
    <!-- Generator: Sketch 49.3 (51167) - http://www.bohemiancoding.com/sketch -->
    <title>ico/member-sel</title>
    <desc>Created with Sketch.</desc>
    <defs></defs>
    <g id="ico/member-sel" stroke="none" stroke-width="1" fill="none" fill-rule="evenodd">
        <path d="M30.0832796,30.3373625 L39.571654,33.7998876 C43.1008446,35.08777 45.8636395,37.894669 47.0954715,41.4438123 L47.8176311,43.5244919 C48.6325317,45.8723762 47.3898029,48.4363199 45.0419186,49.2512205 C44.5674132,49.4159113 44.0686838,49.5 43.5664105,49.5 L6,49.5 C3.51471863,49.5 1.5,47.4852814 1.5,45 C1.5,44.4977267 1.58408875,43.9989974 1.74877948,43.5244919 L2.47093907,41.4438123 C3.70277109,37.894669 6.46556594,35.08777 9.99475658,33.7998876 L19.0832796,30.4832774 L19.0832796,27.1538282 C15.7043015,23.5586962 13.0832796,16.6687947 13.0832796,12 C13.0832796,5.64872538 18.232005,0.5 24.5832796,0.5 C30.9345542,0.5 36.0832796,5.64872538 36.0832796,12 C36.0832796,16.6687947 33.4622577,23.5586962 30.0832796,27.1538282 L30.0832796,30.3373625 Z" id="Combined-Shape" fill="#979797" fill-rule="nonzero"></path>
    </g>
</svg>