<?xml version="1.0" encoding="UTF-8"?>
<svg width="50px" height="50px" viewBox="0 0 50 50" version="1.1" xmlns="http://www.w3.org/2000/svg" xmlns:xlink="http://www.w3.org/1999/xlink">
    <!-- Generator: Sketch 49.3 (51167) - http://www.bohemiancoding.com/sketch -->
    <title>ico/member</title>
    <desc>Created with Sketch.</desc>
    <defs></defs>
    <g id="ico/member" stroke="none" stroke-width="1" fill="none" fill-rule="evenodd">
        <path d="M38.5432232,36.6181015 L28.0690642,32.7958411 C27.4771122,32.5798243 27.0832796,32.0168695 27.0832796,31.3867341 L27.0832796,26.53714 C27.0832796,26.1269904 27.2512283,25.73473 27.5480344,25.4516597 C30.5287751,22.608865 33.0832796,16.0914408 33.0832796,12 C33.0832796,7.30557963 29.2777,3.5 24.5832796,3.5 C19.8888592,3.5 16.0832796,7.30557963 16.0832796,12 C16.0832796,16.0914408 18.6377842,22.608865 21.6185248,25.4516597 C21.915331,25.73473 22.0832796,26.1269904 22.0832796,26.53714 L22.0832796,31.532649 C22.0832796,32.1627844 21.6894471,32.7257392 21.097495,32.941756 L11.0231874,36.6181015 C8.3410025,37.5968922 6.24127842,39.7301354 5.30508608,42.4274843 L4.58292649,44.508164 C4.52802958,44.6663325 4.5,44.8325756 4.5,45 C4.5,45.8284271 5.17157288,46.5 6,46.5 L43.5664105,46.5 C43.733835,46.5 43.9000781,46.4719704 44.0582466,46.4170735 C44.8408747,46.14544 45.2551176,45.2907921 44.9834841,44.508164 L44.2613245,42.4274843 C43.3251321,39.7301354 41.225408,37.5968922 38.5432232,36.6181015 Z M30.0832796,30.3373625 L39.571654,33.7998876 C43.1008446,35.08777 45.8636395,37.894669 47.0954715,41.4438123 L47.8176311,43.5244919 C48.6325317,45.8723762 47.3898029,48.4363199 45.0419186,49.2512205 C44.5674132,49.4159113 44.0686838,49.5 43.5664105,49.5 L6,49.5 C3.51471863,49.5 1.5,47.4852814 1.5,45 C1.5,44.4977267 1.58408875,43.9989974 1.74877948,43.5244919 L2.47093907,41.4438123 C3.70277109,37.894669 6.46556594,35.08777 9.99475658,33.7998876 L19.0832796,30.4832774 L19.0832796,27.1538282 C15.7043015,23.5586962 13.0832796,16.6687947 13.0832796,12 C13.0832796,5.64872538 18.232005,0.5 24.5832796,0.5 C30.9345542,0.5 36.0832796,5.64872538 36.0832796,12 C36.0832796,16.6687947 33.4622577,23.5586962 30.0832796,27.1538282 L30.0832796,30.3373625 Z" id="Combined-Shape" fill="#979797" fill-rule="nonzero"></path>
    </g>
</svg>