<?xml version="1.0" encoding="UTF-8"?>
<svg width="50px" height="50px" viewBox="0 0 50 50" version="1.1" xmlns="http://www.w3.org/2000/svg" xmlns:xlink="http://www.w3.org/1999/xlink">
    <!-- Generator: Sketch 49.3 (51167) - http://www.bohemiancoding.com/sketch -->
    <title>ico/more</title>
    <desc>Created with Sketch.</desc>
    <defs></defs>
    <g id="ico/more" stroke="none" stroke-width="1" fill="none" fill-rule="evenodd">
        <path d="M10,28 C8.34314575,28 7,26.6568542 7,25 C7,23.3431458 8.34314575,22 10,22 C11.6568542,22 13,23.3431458 13,25 C13,26.6568542 11.6568542,28 10,28 Z M25,28 C23.3431458,28 22,26.6568542 22,25 C22,23.3431458 23.3431458,22 25,22 C26.6568542,22 28,23.3431458 28,25 C28,26.6568542 26.6568542,28 25,28 Z M40,28 C38.3431458,28 37,26.6568542 37,25 C37,23.3431458 38.3431458,22 40,22 C41.6568542,22 43,23.3431458 43,25 C43,26.6568542 41.6568542,28 40,28 Z" id="Combined-Shape" fill="#D8D8D8"></path>
    </g>
</svg>