<?xml version="1.0" encoding="UTF-8"?>
<svg width="50px" height="50px" viewBox="0 0 50 50" version="1.1" xmlns="http://www.w3.org/2000/svg" xmlns:xlink="http://www.w3.org/1999/xlink">
    <!-- Generator: Sketch 49.3 (51167) - http://www.bohemiancoding.com/sketch -->
    <title>ico/search</title>
    <desc>Created with Sketch.</desc>
    <defs></defs>
    <g id="ico/search" stroke="none" stroke-width="1" fill="none" fill-rule="evenodd">
        <path d="M34.63019,32.5088697 L48.0692783,45.947958 C48.6550647,46.5337444 48.6550647,47.4834919 48.0692783,48.0692783 C47.4834919,48.6550647 46.5337444,48.6550647 45.947958,48.0692783 L32.4279453,34.5492656 C29.2817987,37.0238866 25.3132817,38.5 21,38.5 C10.7827321,38.5 2.5,30.2172679 2.5,20 C2.5,9.78273213 10.7827321,1.5 21,1.5 C31.2172679,1.5 39.5,9.78273213 39.5,20 C39.5,24.8233841 37.6541017,29.2156356 34.63019,32.5088697 Z M21,35.5 C29.5604136,35.5 36.5,28.5604136 36.5,20 C36.5,11.4395864 29.5604136,4.5 21,4.5 C12.4395864,4.5 5.5,11.4395864 5.5,20 C5.5,28.5604136 12.4395864,35.5 21,35.5 Z M21,8 C21.8284271,8 22.5,8.67157288 22.5,9.5 C22.5,10.3284271 21.8284271,11 21,11 C16.0294373,11 12,15.0294373 12,20 C12,20.8284271 11.3284271,21.5 10.5,21.5 C9.67157288,21.5 9,20.8284271 9,20 C9,13.372583 14.372583,8 21,8 Z" id="Combined-Shape" fill="#979797" fill-rule="nonzero"></path>
    </g>
</svg>