<?xml version="1.0" encoding="UTF-8"?>
<svg width="50px" height="50px" viewBox="0 0 50 50" version="1.1" xmlns="http://www.w3.org/2000/svg" xmlns:xlink="http://www.w3.org/1999/xlink">
    <!-- Generator: Sketch 49.3 (51167) - http://www.bohemiancoding.com/sketch -->
    <title>ico/search-sel</title>
    <desc>Created with Sketch.</desc>
    <defs></defs>
    <g id="ico/search-sel" stroke="none" stroke-width="1" fill="none" fill-rule="evenodd">
        <path d="M34.63019,32.5088697 L48.0692783,45.947958 C48.6550647,46.5337444 48.6550647,47.4834919 48.0692783,48.0692783 C47.4834919,48.6550647 46.5337444,48.6550647 45.947958,48.0692783 L32.4279453,34.5492656 C29.2817987,37.0238866 25.3132817,38.5 21,38.5 C10.7827321,38.5 2.5,30.2172679 2.5,20 C2.5,9.78273213 10.7827321,1.5 21,1.5 C31.2172679,1.5 39.5,9.78273213 39.5,20 C39.5,24.8233841 37.6541017,29.2156356 34.63019,32.5088697 Z M21,7 C13.8202983,7 8,12.8202983 8,20 C8,20.8284271 8.67157288,21.5 9.5,21.5 C10.3284271,21.5 11,20.8284271 11,20 C11,14.4771525 15.4771525,10 21,10 C21.8284271,10 22.5,9.32842712 22.5,8.5 C22.5,7.67157288 21.8284271,7 21,7 Z" id="Combined-Shape" fill="#979797" fill-rule="nonzero"></path>
    </g>
</svg>