<?xml version="1.0" encoding="UTF-8"?>
<svg width="50px" height="50px" viewBox="0 0 50 50" version="1.1" xmlns="http://www.w3.org/2000/svg" xmlns:xlink="http://www.w3.org/1999/xlink" style="background: #222222;">
    <!-- Generator: Sketch 49.3 (51167) - http://www.bohemiancoding.com/sketch -->
    <title>ico/share</title>
    <desc>Created with Sketch.</desc>
    <defs></defs>
    <g id="ico/share" stroke="none" stroke-width="1" fill="none" fill-rule="evenodd">
        <path d="M26.5,5.39082756 L26.5,28 C26.5,28.8284271 25.8284271,29.5 25,29.5 C24.1715729,29.5 23.5,28.8284271 23.5,28 L23.5,5.39082756 L15.0090092,13.1099101 C14.3960228,13.6671705 13.4473503,13.6219956 12.8900899,13.0090092 C12.3328295,12.3960228 12.3780044,11.4473503 12.9909908,10.8900899 L23.9909908,0.89008989 C24.5631226,0.369970037 25.4368774,0.369970037 26.0090092,0.89008989 L37.0090092,10.8900899 C37.6219956,11.4473503 37.6671705,12.3960228 37.1099101,13.0090092 C36.5526497,13.6219956 35.6039772,13.6671705 34.9909908,13.1099101 L26.5,5.39082756 Z M34.7954545,21.5 C33.9670274,21.5 33.2954545,20.8284271 33.2954545,20 C33.2954545,19.1715729 33.9670274,18.5 34.7954545,18.5 L42,18.5 C43.9329966,18.5 45.5,20.0670034 45.5,22 L45.5,44 C45.5,46.5360078 43.2384333,48.5 40.5454545,48.5 L9.45454545,48.5 C6.76156674,48.5 4.5,46.5360078 4.5,44 L4.5,22 C4.5,20.0670034 6.06700338,18.5 8,18.5 L15.2045455,18.5 C16.0329726,18.5 16.7045455,19.1715729 16.7045455,20 C16.7045455,20.8284271 16.0329726,21.5 15.2045455,21.5 L8,21.5 C7.72385763,21.5 7.5,21.7238576 7.5,22 L7.5,44 C7.5,44.7777007 8.33173863,45.5 9.45454545,45.5 L40.5454545,45.5 C41.6682614,45.5 42.5,44.7777007 42.5,44 L42.5,22 C42.5,21.7238576 42.2761424,21.5 42,21.5 L34.7954545,21.5 Z" id="Combined-Shape" fill="#979797" fill-rule="nonzero"></path>
    </g>
</svg>